<mxfile host="app.diagrams.net" modified="2020-09-15T05:41:45.150Z" agent="5.0 (X11; Linux x86_64) AppleWebKit/537.36 (KHTML, like Gecko) Chrome/84.0.4147.105 Safari/537.36" etag="UBMRXHFCLnMYFIUXWDZG" version="13.7.1" type="github">
  <diagram id="XD3nTGi7pkArB2759Moz" name="Page-1">
    <mxGraphModel dx="796" dy="462" grid="1" gridSize="10" guides="1" tooltips="1" connect="1" arrows="1" fold="1" page="1" pageScale="1" pageWidth="850" pageHeight="1100" math="0" shadow="0">
      <root>
        <mxCell id="0" />
        <mxCell id="1" parent="0" />
        <mxCell id="MsIEt4oakSXKqh6b78eB-1" value="" style="rounded=1;whiteSpace=wrap;html=1;" vertex="1" parent="1">
          <mxGeometry x="17.5" y="155" width="120" height="340" as="geometry" />
        </mxCell>
        <mxCell id="MsIEt4oakSXKqh6b78eB-2" value="" style="pointerEvents=1;shadow=0;dashed=0;html=1;strokeColor=none;fillColor=#505050;labelPosition=center;verticalLabelPosition=bottom;verticalAlign=top;outlineConnect=0;align=center;shape=mxgraph.office.devices.lcd_monitor;" vertex="1" parent="1">
          <mxGeometry x="48.5" y="185" width="58" height="48" as="geometry" />
        </mxCell>
        <mxCell id="MsIEt4oakSXKqh6b78eB-4" value="" style="pointerEvents=1;shadow=0;dashed=0;html=1;strokeColor=none;fillColor=#505050;labelPosition=center;verticalLabelPosition=bottom;verticalAlign=top;outlineConnect=0;align=center;shape=mxgraph.office.devices.workstation_pc;" vertex="1" parent="1">
          <mxGeometry x="51" y="425" width="53" height="59" as="geometry" />
        </mxCell>
        <mxCell id="MsIEt4oakSXKqh6b78eB-5" value="" style="pointerEvents=1;shadow=0;dashed=0;html=1;strokeColor=none;fillColor=#505050;labelPosition=center;verticalLabelPosition=bottom;verticalAlign=top;outlineConnect=0;align=center;shape=mxgraph.office.devices.tablet_ipad;" vertex="1" parent="1">
          <mxGeometry x="58" y="265" width="39" height="52" as="geometry" />
        </mxCell>
        <mxCell id="MsIEt4oakSXKqh6b78eB-6" value="" style="pointerEvents=1;shadow=0;dashed=0;html=1;strokeColor=none;fillColor=#505050;labelPosition=center;verticalLabelPosition=bottom;verticalAlign=top;outlineConnect=0;align=center;shape=mxgraph.office.devices.cell_phone_android_proportional;" vertex="1" parent="1">
          <mxGeometry x="69" y="355" width="17" height="31" as="geometry" />
        </mxCell>
        <mxCell id="MsIEt4oakSXKqh6b78eB-7" value="" style="rounded=1;whiteSpace=wrap;html=1;" vertex="1" parent="1">
          <mxGeometry x="210" y="40" width="630" height="570" as="geometry" />
        </mxCell>
        <mxCell id="MsIEt4oakSXKqh6b78eB-18" value="" style="outlineConnect=0;fontColor=#232F3E;gradientColor=none;fillColor=#5A30B5;strokeColor=none;dashed=0;verticalLabelPosition=bottom;verticalAlign=top;align=center;html=1;fontSize=12;fontStyle=0;aspect=fixed;pointerEvents=1;shape=mxgraph.aws4.network_load_balancer;" vertex="1" parent="1">
          <mxGeometry x="232" y="286" width="78" height="78" as="geometry" />
        </mxCell>
        <mxCell id="MsIEt4oakSXKqh6b78eB-20" value="&lt;b&gt;Elastic Load Balancer&lt;/b&gt;" style="text;html=1;strokeColor=none;fillColor=none;align=center;verticalAlign=middle;whiteSpace=wrap;rounded=0;" vertex="1" parent="1">
          <mxGeometry x="230" y="370" width="80" height="40" as="geometry" />
        </mxCell>
        <mxCell id="MsIEt4oakSXKqh6b78eB-22" value="" style="rounded=1;whiteSpace=wrap;html=1;fillColor=#99CCFF;" vertex="1" parent="1">
          <mxGeometry x="325" y="270" width="200" height="110" as="geometry" />
        </mxCell>
        <mxCell id="MsIEt4oakSXKqh6b78eB-24" value="&lt;h1&gt;API Gateway&amp;nbsp; &amp;nbsp; &amp;nbsp; &amp;nbsp; &amp;nbsp; &amp;nbsp;Service&lt;/h1&gt;" style="text;html=1;strokeColor=none;fillColor=none;spacing=5;spacingTop=-20;whiteSpace=wrap;overflow=hidden;rounded=0;" vertex="1" parent="1">
          <mxGeometry x="340" y="294" width="190" height="76" as="geometry" />
        </mxCell>
        <mxCell id="MsIEt4oakSXKqh6b78eB-25" value="" style="html=1;shadow=0;dashed=0;align=center;verticalAlign=middle;shape=mxgraph.arrows2.twoWayArrow;dy=0.65;dx=22;fillColor=#FFFFFF;" vertex="1" parent="1">
          <mxGeometry x="137.5" y="312.5" width="92.5" height="25" as="geometry" />
        </mxCell>
      </root>
    </mxGraphModel>
  </diagram>
</mxfile>
